<svg width="40" height="40" viewBox="0 0 40 40" fill="none" xmlns="http://www.w3.org/2000/svg">
<path d="M11.635 7.5C12.7875 7.5 13.8525 7.5875 14.83 7.85C15.805 8.025 16.6075 8.39 17.32 8.8275C18.035 9.2675 18.5625 9.8925 18.9225 10.695C19.2725 11.495 19.4625 12.4725 19.4625 13.5375C19.4625 14.7775 19.1975 15.8425 18.5725 16.6425C18.035 17.4425 17.1575 18.1575 16.08 18.685C17.595 19.125 18.7475 19.925 19.45 20.99C20.1525 22.055 20.6025 23.3825 20.6025 24.8975C20.6025 26.1375 20.34 27.2025 19.89 28.0925C19.4411 28.9883 18.7675 29.7524 17.935 30.31C17.135 30.8475 16.1575 31.285 15.0925 31.55C14.0492 31.8255 12.9764 31.9733 11.8975 31.99L0 32.0075V7.5H11.635ZM10.9225 17.445C11.8975 17.445 12.6975 17.1825 13.315 16.7325C13.93 16.2825 14.2025 15.49 14.2025 14.515C14.2025 13.975 14.115 13.45 13.94 13.0975C13.7506 12.7402 13.4758 12.4354 13.14 12.21C12.7773 12.0123 12.3897 11.8643 11.9875 11.77C11.5475 11.6825 11.0975 11.6825 10.57 11.6825H5.425V17.4575C5.425 17.445 10.9225 17.445 10.9225 17.445ZM11.185 27.9275C11.7225 27.9275 12.25 27.84 12.7 27.7525C13.14 27.665 13.59 27.4875 13.94 27.2125C14.29 26.9375 14.565 26.675 14.83 26.2375C15.005 25.7975 15.18 25.26 15.18 24.635C15.18 23.395 14.83 22.505 14.115 21.88C13.4025 21.3425 12.425 21.08 11.2725 21.08H5.425V27.915H11.1875L11.185 27.9275ZM28.33 27.84C29.045 28.5525 30.1075 28.905 31.525 28.905C32.5 28.905 33.39 28.64 34.105 28.19C34.8175 27.6525 35.255 27.125 35.43 26.59H39.78C39.065 28.7175 38 30.2325 36.585 31.21C35.17 32.0975 33.4775 32.625 31.435 32.625C30.1289 32.6308 28.8336 32.389 27.6175 31.9125C26.5231 31.5056 25.5465 30.834 24.775 29.9575C23.9521 29.1402 23.3411 28.1344 22.995 27.0275C22.5575 25.875 22.37 24.635 22.37 23.2075C22.37 21.88 22.545 20.6275 22.995 19.475C23.445 18.325 24.06 17.345 24.8625 16.4575C25.6625 15.6575 26.64 14.9425 27.705 14.5025C28.8925 14.0297 30.1593 13.7879 31.4375 13.79C32.9525 13.79 34.28 14.0525 35.4325 14.6775C36.5825 15.3025 37.475 16.0075 38.1875 17.0725C38.9 18.0475 39.4275 19.2 39.79 20.4425C39.965 21.6825 40.0525 22.9325 39.965 24.35H27.09C27.09 25.8 27.615 27.125 28.33 27.84ZM33.93 18.51C33.305 17.885 32.325 17.5325 31.1725 17.5325C30.3725 17.5325 29.7575 17.7075 29.22 17.9725C28.6825 18.235 28.33 18.5975 27.98 18.9475C27.6532 19.2906 27.4357 19.7231 27.355 20.19C27.265 20.6275 27.18 20.99 27.18 21.34H35.17C34.995 20.025 34.5475 19.135 33.93 18.51ZM26.1125 9.19H36.0575V11.5825H26.1125V9.19Z" fill="#F1F4DF"/>
</svg>
