<svg width="30" height="30" viewBox="0 0 30 30" fill="none" xmlns="http://www.w3.org/2000/svg">
<path d="M5.26366 24.6924C4.74893 24.3868 4.30626 23.9955 3.78809 23.4453C3.51915 23.1521 3.25262 22.8571 2.98854 22.5604C2.19414 21.6816 1.69313 21.275 1.17668 21.1084C0.959378 21.0444 0.758663 20.9422 0.586354 20.808C0.414044 20.6738 0.273624 20.5102 0.173362 20.327C0.0730995 20.1437 0.0150221 19.9444 0.00254934 19.7408C-0.00992339 19.5372 0.0234606 19.3334 0.100736 19.1415C0.178011 18.9496 0.297615 18.7734 0.452505 18.6233C0.607395 18.4731 0.79444 18.3521 1.00262 18.2674C1.21081 18.1827 1.43593 18.1359 1.66472 18.1298C1.89351 18.1237 2.12135 18.1585 2.33483 18.2321C3.62509 18.6447 4.49842 19.3554 5.67544 20.6591C5.51416 20.4803 6.25881 21.3117 6.41838 21.4829C6.74437 21.8298 6.98458 22.0407 7.17332 22.1523C7.52334 22.3617 8.18219 22.4519 9.14646 22.3663C9.18764 21.7825 9.30774 21.2154 9.49305 20.6912C4.40062 19.5831 1.51812 16.6563 1.51812 10.9158C1.51812 9.02369 2.15296 7.31651 3.33341 5.88597C2.95937 4.51961 3.01599 2.86745 3.85157 1.00744C3.94619 0.796751 4.09229 0.607476 4.27926 0.453354C4.46623 0.299232 4.68938 0.184129 4.93251 0.116402C5.07149 0.0797211 5.15042 0.0644376 5.2894 0.0445689C6.66716 -0.14342 8.61285 0.30439 11.1488 1.72118C12.66 1.40647 14.2071 1.2485 15.7591 1.25045C17.3238 1.25045 18.8801 1.40787 20.3642 1.72118C22.8984 0.29522 24.8492 -0.154118 26.2356 0.0445689C26.3814 0.0659659 26.5067 0.0934762 26.6096 0.122515C26.8478 0.192478 27.0659 0.30811 27.2485 0.461265C27.4311 0.614421 27.5738 0.801376 27.6665 1.00896C28.5021 2.86592 28.5587 4.51808 28.1847 5.88444C29.3703 7.31498 30 9.00994 30 10.9158C30 16.6594 27.1278 19.5755 22.0354 20.6866C22.2498 21.3209 22.3614 22.0285 22.3614 22.7958C22.3614 23.8106 22.3579 24.7811 22.3494 25.8678C22.3494 26.1581 22.3459 26.4699 22.3408 26.9468C22.7252 27.0222 23.0689 27.2131 23.3141 27.4874C23.5593 27.7617 23.6911 28.1028 23.6875 28.4534C23.6839 28.8041 23.545 29.143 23.2942 29.4132C23.0434 29.6835 22.6958 29.8687 22.3099 29.9378C20.3539 30.2862 18.9058 29.1247 18.9058 27.6086L18.9092 26.9254L18.9178 25.8479C18.9264 24.7673 18.9315 23.8029 18.9315 22.7958C18.9315 21.7305 18.6158 21.0351 18.2006 20.7157C17.0665 19.8445 17.6413 18.1877 19.1288 18.0395C24.2178 17.529 26.5684 15.7729 26.5684 10.9173C26.5684 9.45775 26.0331 8.25034 25.0019 7.24162C24.7853 7.02954 24.64 6.76744 24.5827 6.48528C24.5253 6.20313 24.5582 5.91229 24.6777 5.64601C24.9625 5.01174 25.0826 4.18337 24.8407 3.17924L24.8235 3.18229C23.9811 3.39626 22.919 3.85477 21.6356 4.63424C21.4286 4.75934 21.1935 4.84263 20.9466 4.87827C20.6997 4.91391 20.4471 4.90104 20.2064 4.84057C18.7581 4.48285 17.2619 4.30288 15.7591 4.30564C14.232 4.30564 12.7187 4.48904 11.3118 4.84057C11.0723 4.90055 10.8211 4.91344 10.5755 4.87834C10.3299 4.84324 10.0958 4.76099 9.88939 4.63729C8.59741 3.86242 7.53191 3.40391 6.68089 3.18994C6.43553 4.18796 6.55735 5.0148 6.84046 5.64601C6.95988 5.91229 6.9928 6.20313 6.93546 6.48528C6.87811 6.76744 6.73282 7.02954 6.51617 7.24162C5.49186 8.24423 4.94967 9.4715 4.94967 10.9158C4.94967 15.7638 7.302 17.5336 12.3653 18.038C13.8494 18.1877 14.4276 19.8384 13.3004 20.7111C12.9692 20.9663 12.5626 21.8298 12.5626 22.7958V27.6086C12.5626 29.1155 11.1316 30.2465 9.19965 29.9454C8.80712 29.885 8.45043 29.7047 8.19077 29.4356C7.93112 29.1665 7.78467 28.8253 7.77655 28.4705C7.76844 28.1158 7.89916 27.7695 8.14629 27.4912C8.39343 27.2129 8.74157 27.0199 9.13102 26.9453V25.4322C7.56966 25.5269 6.28111 25.2992 5.26366 24.6924Z" fill="white"/>
</svg>
