<svg width="30" height="30" viewBox="0 0 30 30" fill="none" xmlns="http://www.w3.org/2000/svg">
<path d="M6.29591 3.33482C6.29549 4.21882 5.96343 5.06645 5.37278 5.69122C4.78213 6.31599 3.98127 6.66674 3.14638 6.6663C2.31149 6.66586 1.51096 6.31426 0.920902 5.68886C0.330841 5.06346 -0.000417051 4.21549 3.94063e-07 3.33148C0.000417839 2.44748 0.332477 1.59985 0.923128 0.975078C1.51378 0.350304 2.31464 -0.000441586 3.14953 4.17246e-07C3.98442 0.00044242 4.78495 0.352036 5.37501 0.977435C5.96507 1.60283 6.29633 2.45081 6.29591 3.33482ZM6.39035 9.13449H0.0944389V30H6.39035V9.13449ZM16.3379 9.13449H10.0735V30H16.2749V19.0506C16.2749 12.9509 23.7828 12.3843 23.7828 19.0506V30H30V16.7841C30 6.50131 18.8877 6.88462 16.2749 11.9343L16.3379 9.13449Z" fill="white"/>
</svg>
